<?xml version="1.0" encoding="utf-8"?>
<!-- Generator: Adobe Illustrator 13.0.0, SVG Export Plug-In  -->
<!DOCTYPE svg PUBLIC "-//W3C//DTD SVG 1.1//EN" "http://www.w3.org/Graphics/SVG/1.1/DTD/svg11.dtd" [
	<!ENTITY ns_flows "http://ns.adobe.com/Flows/1.0/">
]>
<svg version="1.1"
	 xmlns="http://www.w3.org/2000/svg" xmlns:xlink="http://www.w3.org/1999/xlink" xmlns:a="http://ns.adobe.com/AdobeSVGViewerExtensions/3.0/"
	 x="0px" y="0px" width="221px" height="212px" viewBox="-0.354 -1 221 212" enable-background="new -0.354 -1 221 212"
	 xml:space="preserve">
<defs>
</defs>
<g enable-background="new    ">
	<defs>
		<polygon id="SVGID_3_" enable-background="new    " points="144.748,85.968 115.282,205.464 5.839,154.43 35.305,34.934 		"/>
	</defs>
	<use xlink:href="#SVGID_3_"  overflow="visible" fill="#A0A0A0"/>
	<clipPath id="SVGID_4_">
		<use xlink:href="#SVGID_3_"  overflow="visible"/>
	</clipPath>
	<g clip-path="url(#SVGID_4_)">
		<path fill="#CCCCCC" d="M71.934,133.824c-6.891-3.213-10.973-11.918-9.117-19.442c1.854-7.523,8.945-11.019,15.836-7.806
			c6.892,3.213,10.975,11.919,9.119,19.442C85.916,133.542,78.824,137.038,71.934,133.824 M144.748,85.966L35.305,34.933
			l-29.466,119.5l109.443,51.034L144.748,85.966"/>
		<path fill="#231F20" d="M78.652,106.576c-6.891-3.213-13.981,0.282-15.836,7.806c-1.855,7.524,2.227,16.229,9.117,19.442
			c6.891,3.214,13.982-0.281,15.838-7.806C89.627,118.495,85.544,109.789,78.652,106.576"/>
	</g>
</g>
<g enable-background="new    ">
	<defs>
		<polygon id="SVGID_2_" enable-background="new    " points="144.748,85.968 214.797,56.501 185.332,175.999 115.282,205.464 		"/>
	</defs>
	<use xlink:href="#SVGID_2_"  overflow="visible" fill="#ADADAD"/>
	<clipPath id="SVGID_5_">
		<use xlink:href="#SVGID_2_"  overflow="visible"/>
	</clipPath>
	<g clip-path="url(#SVGID_5_)">
		<path fill="#B3B3B3" d="M148.296,112.321c1.627-6.599,6.081-13.27,9.95-14.897c3.87-1.628,5.686,2.405,4.059,9.004
			c-1.627,6.6-6.082,13.271-9.953,14.898C148.483,122.953,146.668,118.919,148.296,112.321 M158.033,133.931
			c1.628-6.6,6.084-13.271,9.953-14.898c3.868-1.627,5.686,2.405,4.059,9.004c-1.627,6.6-6.084,13.271-9.953,14.898
			C158.225,144.562,156.406,140.53,158.033,133.931 M167.774,155.541c1.628-6.604,6.083-13.271,9.952-14.898
			c3.869-1.627,5.688,2.4,4.059,9.004c-1.627,6.6-6.082,13.267-9.951,14.894C167.966,166.167,166.146,162.139,167.774,155.541
			 M185.331,176.001L214.797,56.5l-70.05,29.467l-29.466,119.501L185.331,176.001"/>
		<path fill="#231F20" d="M181.785,149.646c1.629-6.604-0.189-10.631-4.059-9.004c-3.869,1.628-8.324,8.295-9.952,14.898
			c-1.628,6.599,0.191,10.627,4.06,8.999C175.703,162.913,180.158,156.246,181.785,149.646"/>
		<path fill="#231F20" d="M172.045,128.037c1.627-6.599-0.19-10.631-4.059-9.004c-3.869,1.628-8.325,8.299-9.953,14.898
			c-1.627,6.599,0.191,10.631,4.059,9.004C165.961,141.308,170.418,134.636,172.045,128.037"/>
		<path fill="#231F20" d="M162.305,106.427c1.627-6.599-0.188-10.632-4.059-9.004c-3.869,1.628-8.323,8.299-9.95,14.897
			c-1.628,6.599,0.188,10.632,4.056,9.005C156.223,119.698,160.678,113.027,162.305,106.427"/>
	</g>
</g>
<g enable-background="new    ">
	<defs>
		<polygon id="SVGID_1_" enable-background="new    " points="35.305,34.934 105.354,5.468 214.797,56.501 144.748,85.968 		"/>
	</defs>
	<use xlink:href="#SVGID_1_"  overflow="visible" fill="#C2C2C2"/>
	<clipPath id="SVGID_6_">
		<use xlink:href="#SVGID_1_"  overflow="visible"/>
	</clipPath>
	<g clip-path="url(#SVGID_6_)">
		<path fill="#E6E6E6" d="M73.221,42.279c-6.044-2.818-7.809-6.423-3.939-8.05c3.868-1.628,11.904-0.661,17.948,2.157
			s7.81,6.423,3.942,8.05C87.303,46.064,79.265,45.097,73.221,42.279 M125.756,66.777c-6.048-2.82-7.809-6.424-3.939-8.051
			c3.868-1.627,11.9-0.662,17.947,2.158c6.045,2.818,7.811,6.422,3.943,8.049C139.838,70.561,131.799,69.595,125.756,66.777
			 M116.301,47.456c-6.043-2.817-7.808-6.423-3.941-8.05c3.867-1.627,11.906-0.66,17.95,2.158s7.808,6.423,3.939,8.05
			C130.383,51.24,122.345,50.274,116.301,47.456 M106.844,28.136c-6.044-2.818-7.809-6.424-3.939-8.051
			c3.868-1.627,11.906-0.661,17.951,2.156c6.043,2.818,7.807,6.424,3.939,8.051C120.926,31.92,112.888,30.955,106.844,28.136
			 M159.379,52.633c-6.048-2.82-7.809-6.423-3.939-8.05c3.868-1.628,11.902-0.664,17.951,2.156c6.043,2.818,7.808,6.424,3.939,8.051
			C173.461,56.417,165.423,55.452,159.379,52.633 M214.798,56.502L105.354,5.468l-70.05,29.466l109.443,51.034L214.798,56.502"/>
		<path fill="#231F20" d="M173.391,46.74c-6.049-2.82-14.083-3.784-17.951-2.156c-3.869,1.627-2.108,5.229,3.939,8.05
			c6.044,2.818,14.082,3.784,17.951,2.157C181.198,53.164,179.434,49.558,173.391,46.74"/>
		<path fill="#231F20" d="M130.31,41.564c-6.044-2.818-14.083-3.785-17.95-2.158c-3.866,1.627-2.102,5.232,3.941,8.05
			c6.044,2.818,14.082,3.784,17.948,2.158C138.117,47.987,136.354,44.382,130.31,41.564"/>
		<path fill="#231F20" d="M120.855,22.242c-6.045-2.817-14.083-3.783-17.951-2.156c-3.869,1.627-2.104,5.232,3.939,8.051
			s14.082,3.784,17.951,2.156C128.662,28.666,126.898,25.06,120.855,22.242"/>
		<path fill="#231F20" d="M87.229,36.386c-6.044-2.818-14.08-3.785-17.948-2.157c-3.869,1.627-2.104,5.231,3.939,8.05
			s14.082,3.785,17.951,2.157C95.039,42.809,93.273,39.205,87.229,36.386"/>
		<path fill="#231F20" d="M139.764,60.884c-6.047-2.82-14.079-3.785-17.947-2.158c-3.869,1.627-2.108,5.23,3.939,8.051
			c6.043,2.818,14.082,3.784,17.951,2.156C147.574,67.306,145.809,63.703,139.764,60.884"/>
	</g>
</g>
<line fill="none" stroke="#808080" stroke-width="2" x1="144.748" y1="85.968" x2="35.305" y2="34.933"/>
<line fill="none" stroke="#808080" stroke-width="2" x1="115.793" y1="203.39" x2="144.748" y2="85.968"/>
<line fill="none" stroke="#808080" stroke-width="2" x1="214.797" y1="56.5" x2="144.748" y2="85.968"/>
<polygon fill="none" stroke="#000000" stroke-width="10" points="35.305,34.933 105.354,5.468 214.797,56.5 185.332,175.999 
	115.282,205.464 5.839,154.43 "/>
</svg>
